# xmcd
#
# Track frame offsets:
# 150
# 12022
# 32260
# 47627
# 62677
# 78307
# 94022
# 105980
# 119927
# 140777
# 155392
# 174875
# 193820
# 212865
# 227140
#
# Disc length: 3125 seconds
#
#
# Revision: 2
# Processed by: cddbd v1.4PL0 Copyright (c) Steve Scherf et al.
# Submitted via: FreeRIP 2.12 
#
DISCID=c20c330f
DTITLE=Steve Wariner  - Two Teardrops 
DYEAR=1999
DGENRE=Country
TTITLE0=Hands Of Time 
TTITLE1=Two Teardrops
TTITLE2=You Be My Everything 
TTITLE3=I'm Already Taken 
TTITLE4=I've Been In That Movie 
TTITLE5=If You Don't Know By Now 
TTITLE6=Talk To Her Heart 
TTITLE7=So Much 
TTITLE8=I'll Always Have Denver 
TTITLE9=That's Love For You 
TTITLE10=Cry No More 
TTITLE11=Since You Walked Away 
TTITLE12=For The First Time 
TTITLE13=Tattoos Of Life 
TTITLE14=The Harry Shuffle 
EXTD=\nYEAR: 1999  ID3G:   2
EXTT0=
EXTT1=
EXTT2=
EXTT3=
EXTT4=
EXTT5=
EXTT6=
EXTT7=
EXTT8=
EXTT9=
EXTT10=
EXTT11=
EXTT12=
EXTT13=
EXTT14=
PLAYORDER=
